inDegrees=yes
name=ik_lifting_orientations
DataType=double
version=3
OpenSimVersion=4.5-2024-01-10-34fd6af
endheader
time	pelvis_tilt	pelvis_list	pelvis_rotation	pelvis_tx	pelvis_ty	pelvis_tz	hip_flexion_r	hip_adduction_r	hip_rotation_r	knee_angle_r	knee_angle_r_beta	ankle_angle_r	subtalar_angle_r	mtp_angle_r	hip_flexion_l	hip_adduction_l	hip_rotation_l	knee_angle_l	knee_angle_l_beta	ankle_angle_l	subtalar_angle_l	mtp_angle_l	lumbar_extension	lumbar_bending	lumbar_rotation	arm_flex_r	arm_add_r	arm_rot_r	elbow_flex_r	pro_sup_r	wrist_flex_r	wrist_dev_r	arm_flex_l	arm_add_l	arm_rot_l	elbow_flex_l	pro_sup_l	wrist_flex_l	wrist_dev_l
5.18	0.6047876666935038	-0.5109397784134788	91.9723242239144	0	0.9400000003403366	0	44.89579514346785	-10.00032949443235	0	59.58078692665345	1.039880902799296	-5.000018822165305	0	0	44.89579514346785	-10.00032949443235	0	59.58078692665345	1.039880902799296	-5.000018822165305	0	0	-0.02160710544944842	-0.008925155571376565	-0.02375610102917237	-4.515259973310972	-6.525407252847251	-0.1616708989055363	29.46053897514003	-1.305965681838663	0	0	0	-13.60691877557115	0	75.00849558955144	1.30575541181565	0	0
5.19	0.6331217807353666	-0.4984286797719572	92.09521394280405	0	0.9400000003403366	0	44.89582756160507	-10.0003291364221	0	59.5808893597344	1.039882690593821	-5.000018795280605	0	0	44.89582756160507	-10.0003291364221	0	59.5808893597344	1.039882690593821	-5.000018795280605	0	0	-0.008283661300131818	-0.001524498915614959	-0.002512395793770101	-4.558265430139311	-6.560420997259391	-0.4083221225728656	29.7730434658987	-1.305682952662853	0	0	0	-13.60714072771824	0	75.00849300129866	1.305472682638651	0	0
5.2	0.6338508115925412	-0.5166200360682722	92.09736735190714	0	0.9400000003403366	0	44.89583983966427	-10.0003290013236	0	59.58092825293755	1.039883369408273	-5.000018785143928	0	0	44.89583983966427	-10.0003290013236	0	59.58092825293755	1.039883369408273	-5.000018785143928	0	0	-0.00819993291715226	-0.009889014342609121	-0.009906147731583614	-4.480822095113923	-6.603810343006532	-0.4728827520450413	30.00474380660916	-1.305575762446804	0	0	0	-13.60722494742427	0	75.00849202102268	1.305365492422149	0	0
5.21	0.6634003062613987	-0.5266868811208623	92.18303609613821	0	0.9400000003403366	0	44.89586968902637	-10.0003286717166	0	59.58102250801331	1.039885014469682	-5.000018760398612	0	0	44.89586968902637	-10.0003286717166	0	59.58102250801331	1.039885014469682	-5.000018760398612	0	0	-0.01159515179993874	-0.002705345569367805	-0.004129509374542871	-4.466472375343175	-6.708723849459332	-0.6406133427738236	30.39907390897482	-1.305315477866894	0	0	0	-13.60742924571526	0	75.00848963786002	1.305105207841141	0	0
5.22	0.6945757569031035	-0.5545350863098966	92.26752744305099	0	0.9400000003403366	0	44.89590009811921	-10.00032833601468	0	59.58111850002736	1.039886689846383	-5.000018735201256	0	0	44.89590009811921	-10.00032833601468	0	59.58111850002736	1.039886689846383	-5.000018735201256	0	0	-0.01230951073360478	-0.002577495836790982	-0.004386240269530083	-4.407876296053153	-6.831796672765618	-0.8023834733873075	30.8802583155733	-1.305050327874559	0	0	0	-13.60763734795377	0	75.00848721000865	1.304840057847692	0	0
5.23	0.7183447271327813	-0.5513175313209931	92.38289049074808	0	0.9400000003403366	0	44.89593143802785	-10.00032799011198	0	59.58121739597443	1.039888415906276	-5.000018709243764	0	0	44.89593143802785	-10.00032799011198	0	59.58121739597443	1.039888415906276	-5.000018709243764	0	0	-0.0105377876053214	-0.002974775465030592	-0.004587860069925924	-4.334027491556202	-6.949937528374732	-1.025230582468938	31.31047874976955	-1.30477708035122	0	0	0	-13.60785178844392	0	75.0084847078413	1.304566810323204	0	0
5.24	0.7423303966137533	-0.5346998806673778	92.50580466278763	0	0.9400000003403366	0	44.89595782787372	-10.00032770004962	0	59.58130090850156	1.039889873474841	-5.000018687497558	0	0	44.89595782787372	-10.00032770004962	0	59.58130090850156	1.039889873474841	-5.000018687497558	0	0	-0.01326470939100287	-0.001767320385723486	-0.004900084317704098	-4.3531945747679	-6.973177013222567	-1.220714387928042	31.59857669592981	-1.304546725720652	0	0	0	-13.60803274171147	0	75.00848260088513	1.304336455691667	0	0
5.25	0.7679367003834002	-0.536964152536493	92.63299786825563	0	0.9400000003403366	0	44.89598858357482	-10.0003273610969	0	59.58139798011275	1.039891567694066	-5.000018662077082	0	0	44.89598858357482	-10.0003273610969	0	59.58139798011275	1.039891567694066	-5.000018662077082	0	0	-0.01480655711513543	-0.003517834924129615	-0.005946098952174418	-4.270766038541352	-7.114624220327014	-1.404203062102562	32.181984186301	-1.304278518703043	0	0	0	-13.60824325320798	0	75.00848014536071	1.304068248672925	0	0
5.26	0.7608748916326121	-0.5374349715877341	92.69438140180853	0	0.9400000003403366	0	44.8960110182631	-10.00032711433498	0	59.58146886763533	1.039892804914734	-5.000018643580499	0	0	44.8960110182631	-10.00032711433498	0	59.58146886763533	1.039892804914734	-5.000018643580499	0	0	-0.03186606814158582	-0.0127060894053259	-0.01393282895629576	-4.148194207808305	-7.30670638943702	-1.553456137240116	32.93239565188934	-1.304082780621451	0	0	0	-13.60839694548637	0	75.00847835418298	1.303872510590512	0	0
5.27	0.7679991536487346	-0.5358199252004845	92.69404361193043	0	0.9400000003403366	0	44.89604298439937	-10.00032676232575	0	59.58156973008322	1.039894565296541	-5.000018617193004	0	0	44.89604298439937	-10.00032676232575	0	59.58156973008322	1.039894565296541	-5.000018617193004	0	0	-0.01747460394908454	-0.003887534623131975	-0.006435232804293912	-4.078058812895131	-7.59040843840627	-1.650477656094978	33.68869503057711	-1.303804017208036	0	0	0	-13.6086157342907	0	75.0084758020178	1.303593747175922	0	0
5.28	0.7773274160358399	-0.462344161500119	92.80988533791083	0	0.9400000003403366	0	44.89606991508791	-10.00032646614916	0	59.58165475028974	1.039896049179076	-5.000018594999991	0	0	44.89606991508791	-10.00032646614916	0	59.58165475028974	1.039896049179076	-5.000018594999991	0	0	-0.02737306667787019	-0.008257690520447891	-0.01131507887192345	-3.982722412727988	-7.828340828219687	-1.852800262273008	34.53898317763785	-1.303569102342683	0	0	0	-13.60880014711206	0	75.00847365188096	1.303358832309579	0	0
5.29	0.773447826808275	-0.4568261898907641	92.81042054886373	0	0.9400000003403366	0	44.89609932006596	-10.00032614294369	0	59.58174757793343	1.039897669327095	-5.000018570788203	0	0	44.89609932006596	-10.00032614294369	0	59.58174757793343	1.039897669327095	-5.000018570788203	0	0	-0.02801339832313523	-0.006594975959001466	-0.01063232498023099	-3.878045871875277	-8.077899207971562	-1.964844132155513	35.5162391995497	-1.303312593123295	0	0	0	-13.60900151515739	0	75.00847130419777	1.303102323089117	0	0
5.3	0.778159256658369	-0.4650004299364333	92.80898331914909	0	0.9400000003403366	0	44.89613680896795	-10.00032573079449	0	59.58186583683243	1.039899733334252	-5.000018539918028	0	0	44.89613680896795	-10.00032573079449	0	59.58186583683243	1.039899733334252	-5.000018539918028	0	0	-0.01081681581256638	-0.00129255340216242	-0.00493966475685609	-3.726346141427533	-8.379354354955792	-2.153807423070707	36.58464845279513	-1.302985636223331	0	0	0	-13.60925813314831	0	75.00846831109681	1.302775366187782	0	0
5.31	0.7801589383065082	-0.4250856826088232	92.90584514414708	0	0.9400000003403366	0	44.89616433291797	-10.00032542896345	0	59.58195278706417	1.039901250902082	-5.000018517326067	0	0	44.89616433291797	-10.00032542896345	0	59.58195278706417	1.039901250902082	-5.000018517326067	0	0	-0.03890241887772076	-0.008244674401726779	-0.01800376885366636	-3.700476322369653	-8.697824513615011	-2.409192230494254	37.76708452027221	-1.302745436962752	0	0	0	-13.60944675435511	0	75.00846611359417	1.302535166926188	0	0
5.32	0.7817612221572601	-0.3909787123363606	93.00156498333335	0	0.9400000003403366	0	44.89619146632725	-10.00032513154042	0	59.58203849252536	1.039902746744566	-5.000018495069257	0	0	44.89619146632725	-10.00032513154042	0	59.58203849252536	1.039902746744566	-5.000018495069257	0	0	-0.03858311207297216	-0.008311569721586561	-0.01689064038864778	-3.644071551974011	-9.010068599846013	-2.74050256807597	38.88095233341406	-1.302508643854727	0	0	0	-13.60963269859979	0	75.00846394727215	1.302298373817165	0	0
